<svg height="512pt" viewBox="0 0 512 512" width="512pt" xmlns="http://www.w3.org/2000/svg"><path d="m512 256c0 141.386719-114.613281 256-256 256s-256-114.613281-256-256 114.613281-256 256-256 256 114.613281 256 256zm0 0" fill="#303a59"/><path d="m367 345h-143.65625c-8.285156 0-15 6.71875-15 15 0 8.285156-6.71875 15-15 15h-81c-8.285156 0-15 6.71875-15 15 0 8.285156-6.71875 15-15 15h-34.523438c16.628907 23.195312 37.03125 43.496094 60.320313 60h237.859375c8.285156 0 15-6.714844 15-15 0-8.28125-6.714844-15-15-15h-54c-8.285156 0-15-6.714844-15-15 0-8.28125 6.714844-15 15-15h24c8.285156 0 15-6.714844 15-15 0-8.28125 6.714844-15 15-15h21c8.285156 0 15-6.714844 15-15 0-8.28125-6.71875-15-15-15zm0 0" fill="#ebf0f3"/><path d="m512 180c0 99.414062-80.589844 180.003906-180 180.003906-99.414062 0-180.003906-80.589844-180.003906-180.003906 0-99.410156 80.589844-180 180.003906-180 99.410156 0 180 80.589844 180 180zm0 0" fill="#ffe854"/><g fill="#ffcf11"><path d="m211.996094 180c0-89.1875 64.871094-163.214844 150.003906-177.496094-9.757812-1.640625-19.777344-2.503906-30-2.503906-99.414062 0-180.003906 80.589844-180.003906 180 0 99.414062 80.589844 180.003906 180.003906 180.003906 10.222656 0 20.242188-.867187 30-2.503906-85.128906-14.285156-150.003906-88.3125-150.003906-177.5zm0 0"/><path d="m316.007812 121c0 33.140625-26.867187 60.007812-60.007812 60.007812s-60.007812-26.867187-60.007812-60.007812 26.867187-60.007812 60.007812-60.007812 60.007812 26.867187 60.007812 60.007812zm0 0"/><path d="m438.96875 87.269531c0 18.628907-15.105469 33.730469-33.734375 33.730469s-33.730469-15.101562-33.730469-33.730469c0-18.628906 15.101563-33.734375 33.730469-33.734375s33.734375 15.105469 33.734375 33.734375zm0 0"/><path d="m497.28125 251.378906c-12.40625-23.675781-37.199219-39.839844-65.78125-39.839844-40.996094 0-74.230469 33.234376-74.230469 74.230469 0 26.964844 14.378907 50.570313 35.882813 63.570313 46.753906-16.890625 84.507812-52.589844 104.128906-97.960938zm0 0"/></g><path d="m258.5 256c0-8.285156 6.714844-15 15-15h3.5c8.28125 0 15-6.714844 15-15s-6.71875-15-15-15h-201c-8.285156 0-15 6.714844-15 15s-6.71875 15-15 15h-3.5c-8.285156 0-15 6.714844-15 15s6.714844 15 15 15h47c8.28125 0 15 6.714844 15 15s6.714844 15 15 15h201c8.28125 0 15-6.714844 15-15s-6.71875-15-15-15h-47c-8.285156 0-15-6.714844-15-15zm0 0" fill="#fff"/></svg>