<svg id="icon" height="512" viewBox="0 0 128 128" width="512" xmlns="http://www.w3.org/2000/svg"><path d="m110.384 36.5a22.909 22.909 0 1 0 -39.71-22.837 24.51 24.51 0 0 0 -43.762 11.158 28.364 28.364 0 1 0 24.246 46.41 28.35 28.35 0 0 0 38.279 4.921 22.914 22.914 0 1 0 20.947-39.652z" fill="#e1e6e9"/><path d="m127 58.517a22.905 22.905 0 0 1 -37.56 17.631 28.34 28.34 0 0 1 -38.28-4.911 28.368 28.368 0 0 1 -49.625-23.63 28.36 28.36 0 0 0 49.625 12.708 28.338 28.338 0 0 0 38.28 4.912 22.9 22.9 0 0 0 36.893-12.177 22.7 22.7 0 0 1 .667 5.467z" fill="#bac2d3"/><path d="m104.079 82.442a23.948 23.948 0 0 1 -14.679-5.042 29.351 29.351 0 0 1 -38.237-4.643 29.364 29.364 0 1 1 -25.11-48.857 25.7 25.7 0 0 1 25.105-20.933 25.335 25.335 0 0 1 19.39 8.948 23.907 23.907 0 0 1 41.316 24 23.912 23.912 0 0 1 -7.785 46.525zm-14.641-7.291a1 1 0 0 1 .639.231 21.914 21.914 0 1 0 20.032-37.921 1 1 0 0 1 -.581-1.477 21.908 21.908 0 1 0 -37.977-21.838 1 1 0 0 1 -.8.514.981.981 0 0 1 -.869-.39 23.383 23.383 0 0 0 -18.722-9.3 23.682 23.682 0 0 0 -23.258 20 1 1 0 0 1 -.9.847 27.363 27.363 0 1 0 23.389 44.774 1.034 1.034 0 0 1 1.535 0 27.349 27.349 0 0 0 36.929 4.747 1 1 0 0 1 .583-.187z" fill="#2f3a5a"/><path d="m92.75 86.251s-8.744 6.2-9.891 9.378a6.12 6.12 0 1 0 11.514 4.155c1.148-3.179-1.623-13.533-1.623-13.533z" fill="#6bb3d9"/><path d="m94.368 99.783a6.118 6.118 0 0 1 -11.148.815 5.972 5.972 0 0 0 .867.4 6.12 6.12 0 0 0 7.834-3.679c.7-1.947-.066-6.594-.766-9.9.96-.717 1.591-1.17 1.591-1.17s2.77 10.351 1.622 13.534z" fill="#4fa4d1"/><path d="m88.62 104.831a7.125 7.125 0 0 1 -6.7-9.541c1.219-3.377 9.332-9.2 10.254-9.855a1 1 0 0 1 1.544.557c.292 1.091 2.816 10.755 1.6 14.132a7.132 7.132 0 0 1 -6.693 4.707zm3.525-16.9c-3.276 2.443-7.673 6.176-8.346 8.04a5.121 5.121 0 0 0 9.634 3.476c.672-1.867-.333-7.547-1.288-11.518z" fill="#2f3a5a"/><path d="m66.525 86.251s-8.744 6.2-9.892 9.378a6.121 6.121 0 0 0 11.515 4.155c1.152-3.179-1.623-13.533-1.623-13.533z" fill="#6bb3d9"/><path d="m68.143 99.783a6.118 6.118 0 0 1 -11.143.817 5.924 5.924 0 0 0 .867.4 6.118 6.118 0 0 0 7.833-3.679c.7-1.947-.065-6.594-.766-9.9.961-.717 1.592-1.17 1.592-1.17s2.765 10.349 1.617 13.532z" fill="#4fa4d1"/><path d="m62.4 104.831a7.125 7.125 0 0 1 -6.7-9.541c1.219-3.377 9.332-9.2 10.253-9.855a1 1 0 0 1 1.544.557c.292 1.091 2.817 10.754 1.6 14.132a7.134 7.134 0 0 1 -6.693 4.707zm3.523-16.9c-3.275 2.444-7.672 6.176-8.345 8.04a5.121 5.121 0 0 0 9.634 3.476c.668-1.865-.333-7.547-1.293-11.518z" fill="#2f3a5a"/><path d="m40.3 86.251s-8.743 6.2-9.891 9.378a6.121 6.121 0 0 0 11.515 4.155c1.146-3.179-1.624-13.533-1.624-13.533z" fill="#6bb3d9"/><path d="m41.918 99.783a6.118 6.118 0 0 1 -11.148.815 5.961 5.961 0 0 0 .866.4 6.119 6.119 0 0 0 7.834-3.679c.7-1.947-.065-6.594-.766-9.9.96-.717 1.592-1.17 1.592-1.17s2.769 10.351 1.622 13.534z" fill="#4fa4d1"/><path d="m36.17 104.831a7.125 7.125 0 0 1 -6.7-9.541c1.219-3.377 9.332-9.2 10.254-9.855a1 1 0 0 1 1.544.557c.292 1.091 2.816 10.755 1.6 14.132a7.134 7.134 0 0 1 -6.693 4.707zm3.524-16.9c-3.275 2.443-7.673 6.176-8.345 8.04a5.12 5.12 0 1 0 9.633 3.476c.673-1.867-.328-7.547-1.288-11.518z" fill="#2f3a5a"/><path d="m80.592 108.633s-8.744 6.2-9.891 9.379a6.12 6.12 0 1 0 11.514 4.155c1.148-3.18-1.623-13.534-1.623-13.534z" fill="#6bb3d9"/><path d="m82.211 122.166a6.118 6.118 0 0 1 -11.149.815 5.972 5.972 0 0 0 .867.4 6.12 6.12 0 0 0 7.834-3.679c.7-1.947-.066-6.594-.766-9.9.96-.716 1.591-1.169 1.591-1.169s2.77 10.354 1.623 13.533z" fill="#4fa4d1"/><path d="m76.463 127.214a7.125 7.125 0 0 1 -6.7-9.541c1.218-3.378 9.332-9.2 10.253-9.856a1 1 0 0 1 1.544.558c.292 1.091 2.816 10.754 1.6 14.131a7.131 7.131 0 0 1 -6.692 4.708zm3.523-16.9c-3.275 2.443-7.672 6.176-8.344 8.04a5.12 5.12 0 1 0 9.632 3.476c.673-1.867-.327-7.547-1.288-11.518z" fill="#2f3a5a"/><path d="m54.367 108.633s-8.744 6.2-9.891 9.379a6.12 6.12 0 1 0 11.514 4.155c1.148-3.18-1.623-13.534-1.623-13.534z" fill="#6bb3d9"/><path d="m55.985 122.166a6.118 6.118 0 0 1 -11.148.815 5.972 5.972 0 0 0 .867.4 6.121 6.121 0 0 0 7.834-3.679c.7-1.947-.066-6.594-.766-9.9.96-.716 1.591-1.169 1.591-1.169s2.77 10.354 1.622 13.533z" fill="#4fa4d1"/><path d="m50.237 127.214a7.125 7.125 0 0 1 -6.7-9.541c1.219-3.378 9.332-9.2 10.254-9.856a1 1 0 0 1 1.544.558c.292 1.091 2.816 10.754 1.6 14.131a7.134 7.134 0 0 1 -6.694 4.708zm3.525-16.9c-3.276 2.443-7.673 6.176-8.346 8.04a5.121 5.121 0 0 0 9.634 3.476c.673-1.867-.328-7.547-1.288-11.518z" fill="#2f3a5a"/><path d="m28.142 108.633s-8.744 6.2-9.892 9.379a6.121 6.121 0 0 0 11.515 4.155c1.147-3.18-1.623-13.534-1.623-13.534z" fill="#6bb3d9"/><path d="m29.76 122.166a6.118 6.118 0 0 1 -11.148.815 5.961 5.961 0 0 0 .866.4 6.12 6.12 0 0 0 7.834-3.679c.7-1.947-.065-6.594-.766-9.9.961-.716 1.592-1.169 1.592-1.169s2.77 10.354 1.622 13.533z" fill="#4fa4d1"/><path d="m24.013 127.214a7.131 7.131 0 0 1 -6.7-9.541c1.218-3.378 9.332-9.2 10.253-9.856a1 1 0 0 1 1.544.558c.292 1.091 2.817 10.754 1.6 14.131a7.134 7.134 0 0 1 -6.692 4.708zm3.523-16.9c-3.275 2.443-7.673 6.176-8.346 8.04a5.121 5.121 0 1 0 9.634 3.476c.676-1.867-.324-7.547-1.288-11.518z" fill="#2f3a5a"/></svg>