<svg id="Capa_1" enable-background="new 0 0 510 510" height="512" viewBox="0 0 510 510" width="512" xmlns="http://www.w3.org/2000/svg"><g><path d="m245.08 97.826-14.47 3.97c-32.928 43.667-70.336 93.273-97.54 129.35v15h-64.74c-37.68 0-68.33-30.65-68.33-68.33 0-31.79 21.25-59.35 48.86-66.53 6.48-49.11 48.62-87.14 99.47-87.14 44.98 0 84.816 30.228 96.75 73.68z" fill="#dfe5f2"/><path d="m245.08 97.826-14.47 3.97-77.03 102.15v-179.66c42.86 2.24 80.05 31.85 91.5 73.54z" fill="#c7cdde"/><path d="m510 103.146c0 49.85-35.56 92.48-84.55 101.35l-8.01 1.45c-15.463-16.428-96.783-102.835-112.42-119.45l1.94-7.91c11.3-46.19 52.44-78.44 100.04-78.44 56.773 0 103 46.195 103 103z" fill="#ffdd4a"/><path d="m510 103.146c0 49.85-35.56 92.48-84.55 101.35l-8.01 1.45-9.93-10.55v-195.24c56.56.27 102.49 46.37 102.49 102.99z" fill="#f9bd2e"/><path d="m478 252.476c0 45.03-36.64 81.67-81.67 81.67h-200c-45.03 0-81.66-36.64-81.66-81.67 0-38.97 26.62-72.62 60.74-80.11 6.71-60.78 58.38-108.22 120.92-108.22 62.55 0 114.22 47.44 120.93 108.22 34.11 7.49 60.74 41.14 60.74 80.11z" fill="#f1f6ff"/><path d="m478 252.476c0 45.03-36.64 81.67-81.67 81.67h-100v-270c62.55 0 114.22 47.44 120.93 108.22 34.11 7.49 60.74 41.14 60.74 80.11z" fill="#dfe5f2"/><path d="m136.167 384.146h53.666v29.999h-53.666z" fill="#9ee2f8" transform="matrix(.447 -.894 .894 .447 -266.903 366.434)"/><path d="m208.167 384.146h53.666v29.999h-53.666z" fill="#9ee2f8" transform="matrix(.447 -.894 .894 .447 -227.102 430.833)"/><path d="m280.167 384.146h53.666v29.999h-53.666z" fill="#8cbcff" transform="matrix(.447 -.894 .894 .447 -187.302 495.232)"/><path d="m352.167 384.146h53.666v29.999h-53.666z" fill="#8cbcff" transform="matrix(.447 -.894 .894 .447 -147.501 559.63)"/><path d="m80.167 464.146h53.666v29.999h-53.666z" fill="#9ee2f8" transform="matrix(.447 -.894 .894 .447 -369.413 360.569)"/><path d="m152.167 464.146h53.666v29.999h-53.666z" fill="#9ee2f8" transform="matrix(.447 -.894 .894 .447 -329.612 424.968)"/><g fill="#8cbcff"><path d="m224.167 464.146h53.666v29.999h-53.666z" transform="matrix(.447 -.894 .894 .447 -289.812 489.367)"/><path d="m296.167 464.146h53.666v29.999h-53.666z" transform="matrix(.447 -.894 .894 .447 -250.011 553.765)"/></g></g></svg>