<svg height="512pt" viewBox="0 -2 512.00041 512" width="512pt" xmlns="http://www.w3.org/2000/svg"><path d="m504.417969 157.972656c-.113281 1.074219-.503907 2.15625-1.222657 3.167969-24.433593 34.359375-67.972656 52.480469-111.617187 42.476563-56.515625-12.945313-92.773437-68.933594-81.378906-125.78125 5.972656-29.78125 23.601562-54.0625 47.078125-69.226563 1.042968-.660156 2.125-1.011719 3.199218-1.070313 4.308594-.28125 8.253907 3.835938 6.863282 8.617188-.863282 2.957031-1.605469 5.984375-2.226563 9.070312-11.441406 56.847657 24.824219 112.90625 81.351563 125.863282 16.957031 3.886718 33.890625 3.527344 49.695312-.382813 4.820313-1.179687 8.738282 2.96875 8.257813 7.265625zm0 0" fill="#f29500"/><path d="m504.417969 157.972656c-22.480469 12.648438-49.554688 17.285156-76.671875 11.074219-56.519532-12.949219-92.773438-68.933594-81.382813-125.785156 2.628907-13.066407 7.488281-25.082031 14.113281-35.722657 4.308594-.28125 8.253907 3.835938 6.863282 8.617188-.863282 2.957031-1.605469 5.984375-2.226563 9.070312-11.441406 56.847657 24.824219 112.90625 81.351563 125.863282 16.957031 3.886718 33.890625 3.527344 49.695312-.382813 4.820313-1.179687 8.738282 2.96875 8.257813 7.265625zm0 0" fill="#ffb52d"/><path d="m503.875 272.53125c-.574219 10.058594-9.226562 17.757812-19.300781 17.757812h-205.5c-15.421875 0-43.195313-17.320312-43.195313-48.09375 0-36.820312 38.808594-58.347656 69.324219-43.171874 3.652344 1.820312 8.058594-.078126 9.09375-4.023438 7.375-28.179688 33-48.972656 63.492187-48.972656 5.597657 0 11.035157.699218 16.230469 2.023437 21.421875 5.453125 38.640625 21.445313 45.800781 42.128907 1.011719 2.910156 3.945313 4.628906 7.003907 4.226562 29.601562-3.925781 53.152343 25.027344 44.167969 52.949219-.921876 2.875.304687 6.046875 2.957031 7.472656 6.226562 3.335937 10.351562 10.058594 9.925781 17.703125zm0 0" fill="#0956c6"/><path d="m400.414062 174.589844c0 9.382812-2.167968 17.710937-5.71875 24.90625-10.253906 20.851562-31.96875 32.210937-45.589843 32.210937h-44.957031c3.425781 4.496094 6.257812 9.476563 8.328124 14.835938 1.425782 3.6875 5.082032 6.070312 9.011719 5.746093 22.582031-1.921874 40.902344 16.800782 40.757813 38h-83.175782c-15.417968 0-43.191406-17.320312-43.191406-48.09375 0-36.820312 38.808594-58.34375 69.324219-43.171874 3.652344 1.820312 8.058594-.078126 9.09375-4.023438 7.371094-28.175781 33-48.96875 63.492187-48.96875 5.597657 0 11.035157.695312 16.230469 2.023438 4.046875 7.71875 6.394531 16.664062 6.394531 26.535156zm0 0" fill="#0a4499"/><path d="m363.492188 334.910156c.441406 9.257813-6.9375 16.894532-16.09375 16.894532h-203.597657c-12.695312 0-35.554687-14.25-35.554687-39.582032 0-22.667968 17.859375-38.292968 37.378906-39.503906 5.730469-.359375 11.605469.519531 17.214844 2.835938 4.339844 1.792968 9.351562-.570313 10.785156-5.050782 7.003906-21.726562 27.375-37.449218 51.4375-37.449218 22.96875 0 42.578125 14.332031 50.394531 34.53125 1.273438 3.289062 4.527344 5.414062 8.035157 5.121093 21.515624-1.832031 38.683593 17.359375 36.078124 37.789063-.613281 4.8125 3.085938 9.070312 7.925782 9.070312h19.441406c6.734375 0 12.746094 4.019532 15.28125 9.871094.742188 1.691406 1.183594 3.527344 1.273438 5.472656zm0 0" fill="#0a4499"/><path d="m362.21875 329.4375h-182.351562c-12.695313 0-35.554688-14.25-35.554688-39.582031 0-5.28125.441406-11.144531 1.3125-17.136719 5.730469-.359375 11.605469.519531 17.214844 2.835938 4.339844 1.792968 9.351562-.570313 10.785156-5.050782 7.003906-21.726562 27.375-37.449218 51.4375-37.449218 22.96875 0 42.578125 14.332031 50.394531 34.53125 1.273438 3.289062 4.527344 5.414062 8.035157 5.121093 21.515624-1.832031 38.683593 17.359375 36.078124 37.789063-.613281 4.8125 3.085938 9.070312 7.925782 9.070312h19.441406c6.734375 0 12.746094 4.019532 15.28125 9.871094zm0 0" fill="#0956c6"/><path d="m334.699219 169.507812c-.871094 3.949219-2.203125 7.625-3.875 11.023438-9.140625 18.589844-28.5 28.71875-40.648438 28.71875h-261.414062c-11.246094 0-20.816407-8.738281-21.234375-19.960938-.433594-11.804687 9.007812-21.515624 20.722656-21.515624h34.773438c1.992187 0 3.394531-1.945313 2.773437-3.847657-9.949219-30.574219 16.976563-62.371093 49.785156-55.71875 1.492188.3125 2.976563-.558593 3.40625-2.023437 8.519531-28.738282 35.132813-49.714844 66.640625-49.714844 8.796875 0 17.214844 1.636719 24.960938 4.621094 21.90625 8.429687 38.472656 27.648437 43.179687 51.136718.484375 2.375 3.148438 3.527344 5.234375 2.285157 16.164063-9.679688 35.09375-8.988281 50.132813-.941407 2.90625 20.875 11.945312 40.304688 25.5625 55.9375zm0 0" fill="#2476ed"/><path d="m334.699219 169.507812c-.871094 3.949219-2.203125 7.625-3.875 11.023438h-217.746094c-11.246094 0-20.816406-8.738281-21.234375-19.960938-.433594-11.804687 9.007812-21.515624 20.722656-21.515624h34.773438c1.992187 0 3.394531-1.945313 2.773437-3.847657-9.941406-30.574219 16.976563-62.371093 49.785157-55.707031 1.492187.300781 2.964843-.5625 3.398437-2.015625 1.722656-5.820313 4.1875-11.324219 7.292969-16.394531 21.90625 8.429687 38.472656 27.648437 43.179687 51.136718.484375 2.375 3.148438 3.527344 5.234375 2.285157 16.164063-9.679688 35.09375-8.988281 50.132813-.941407 2.90625 20.875 11.945312 40.304688 25.5625 55.9375zm0 0" fill="#5596fb"/><path d="m402.097656 307.511719c-3.691406-1.890625-8.222656-.429688-10.113281 3.265625l-13.625 26.601562c-2.574219 5.027344 1.121094 10.945313 6.683594 10.945313 2.730469 0 5.363281-1.496094 6.695312-4.09375l13.625-26.601563c1.890625-3.695312.429688-8.222656-3.265625-10.117187zm0 0"/><path d="m464.71875 307.519531c-3.691406-1.898437-8.222656-.449219-10.121094 3.242188l-13.703125 26.601562c-1.898437 3.691407-.449219 8.222657 3.242188 10.125 3.675781 1.890625 8.210937.464844 10.121093-3.242187l13.703126-26.601563c1.898437-3.691406.449218-8.222656-3.242188-10.125zm0 0"/><path d="m236.375 387.441406c-3.703125-1.875-8.226562-.394531-10.101562 3.308594l-13.46875 26.601562c-1.878907 3.703126-.394532 8.222657 3.308593 10.101563 3.6875 1.863281 8.214844.40625 10.101563-3.3125l13.46875-26.601563c1.875-3.699218.394531-8.222656-3.308594-10.097656zm0 0"/><path d="m298.765625 387.449219c-3.695313-1.882813-8.222656-.414063-10.109375 3.285156l-13.546875 26.601563c-1.882813 3.695312-.410156 8.222656 3.289063 10.105468 3.683593 1.875 8.210937.429688 10.105468-3.285156l13.546875-26.601562c1.882813-3.699219.414063-8.222657-3.285156-10.105469zm0 0"/><path d="m361.15625 387.457031c-3.695312-1.894531-8.222656-.433593-10.117188 3.261719l-13.625 26.601562c-1.890624 3.695313-.429687 8.222657 3.265626 10.117188 3.671874 1.878906 8.210937.453125 10.117187-3.265625l13.625-26.601563c1.890625-3.691406.429687-8.222656-3.265625-10.113281zm0 0"/><path d="m423.546875 387.460938c-3.6875-1.898438-8.222656-.445313-10.125 3.242187l-13.699219 26.601563c-2.59375 5.03125 1.113282 10.957031 6.675782 10.957031 2.726562 0 5.355468-1.484375 6.6875-4.074219l13.703124-26.601562c1.898438-3.691407.449219-8.222657-3.242187-10.125zm0 0"/><path d="m486.980469 387.460938c-3.691407-1.898438-8.222657-.445313-10.125 3.242187l-13.703125 26.601563c-1.898438 3.6875-.449219 8.21875 3.242187 10.121093 3.675781 1.894531 8.214844.464844 10.125-3.238281l13.699219-26.601562c1.902344-3.691407.449219-8.222657-3.238281-10.125zm0 0"/><path d="m195.890625 467.378906c-3.699219-1.875-8.222656-.390625-10.097656 3.3125l-13.472657 26.601563c-2.546874 5.027343 1.160157 10.914062 6.699219 10.914062 2.742188 0 5.386719-1.511719 6.710938-4.125l13.472656-26.601562c1.875-3.703125.390625-8.222657-3.3125-10.101563zm0 0"/><path d="m172.855469 387.441406c-3.703125-1.875-8.226563-.394531-10.101563 3.308594l-13.46875 26.601562c-2.550781 5.027344 1.160156 10.914063 6.699219 10.914063 2.742187 0 5.386719-1.507813 6.710937-4.125l13.46875-26.597656c1.875-3.703125.394532-8.226563-3.308593-10.101563zm0 0"/><path d="m132.375 467.378906c-3.703125-1.875-8.226562-.390625-10.101562 3.3125l-13.472657 26.601563c-1.875 3.703125-.394531 8.222656 3.3125 10.101562 3.679688 1.859375 8.210938.414063 10.097657-3.3125l13.472656-26.601562c1.875-3.703125.390625-8.222657-3.308594-10.101563zm0 0"/><path d="m258.054688 467.386719c-3.699219-1.878907-8.226563-.410157-10.109376 3.289062l-13.546874 26.601563c-1.882813 3.695312-.414063 8.222656 3.285156 10.105468 3.699218 1.882813 8.222656.417969 10.109375-3.285156l13.546875-26.601562c1.882812-3.699219.414062-8.222656-3.285156-10.109375zm0 0"/><path d="m320.214844 467.394531c-3.691406-1.890625-8.222656-.429687-10.117188 3.265625l-13.625 26.601563c-1.890625 3.695312-.429687 8.222656 3.265625 10.117187 1.097657.5625 2.265625.828125 3.417969.828125 2.730469 0 5.367188-1.496093 6.699219-4.09375l13.621093-26.601562c1.894532-3.695313.429688-8.222657-3.261718-10.117188zm0 0"/><path d="m382.375 467.402344c-3.691406-1.898438-8.222656-.449219-10.125 3.242187l-13.699219 26.601563c-2.59375 5.03125 1.117188 10.960937 6.675781 10.960937 2.726563 0 5.355469-1.488281 6.6875-4.078125l13.703126-26.601562c1.898437-3.691406.449218-8.222656-3.242188-10.125zm0 0"/><path d="m67.839844 227.554688c-3.703125-1.871094-8.226563-.390626-10.101563 3.3125l-13.46875 26.601562c-1.878906 3.703125-.394531 8.222656 3.308594 10.101562 3.6875 1.863282 8.214844.40625 10.101563-3.3125l13.46875-26.601562c1.875-3.703125.394531-8.222656-3.308594-10.101562zm0 0"/><path d="m120.199219 264.273438 13.546875-26.601563c1.882812-3.699219.414062-8.222656-3.285156-10.109375-3.699219-1.878906-8.226563-.410156-10.109376 3.289062l-13.546874 26.601563c-2.570313 5.042969 1.160156 10.925781 6.691406 10.925781 2.734375 0 5.375-1.5 6.703125-4.105468zm0 0"/><path d="m27.355469 307.496094c-3.703125-1.875-8.226563-.390625-10.101563 3.3125l-13.46875 26.601562c-2.546875 5.027344 1.160156 10.914063 6.699219 10.914063 2.742187 0 5.386719-1.507813 6.710937-4.125l13.46875-26.601563c1.878907-3.703125.394532-8.222656-3.308593-10.101562zm0 0"/><path d="m89.746094 307.503906c-3.699219-1.878906-8.222656-.410156-10.105469 3.289063l-13.550781 26.601562c-1.882813 3.695313-.410156 8.222657 3.289062 10.105469 3.699219 1.882812 8.222656.417969 10.105469-3.285156l13.546875-26.601563c1.886719-3.699219.414062-8.222656-3.285156-10.109375zm0 0"/><path d="m49.035156 387.449219c-3.699218-1.882813-8.226562-.414063-10.109375 3.285156l-13.546875 26.601563c-1.882812 3.695312-.414062 8.222656 3.285156 10.105468 3.691407 1.878906 8.21875.421875 10.109376-3.285156l13.546874-26.601562c1.882813-3.699219.414063-8.222657-3.285156-10.105469zm0 0"/><path d="m111.195312 387.457031c-3.695312-1.894531-8.222656-.429687-10.113281 3.261719l-13.625 26.601562c-1.890625 3.695313-.429687 8.222657 3.261719 10.117188 3.679688 1.882812 8.214844.445312 10.117188-3.265625l13.621093-26.601563c1.894531-3.691406.433594-8.222656-3.261719-10.113281zm0 0"/><path d="m498.433594 248.722656c6.230468-20.867187-2.546875-42.414062-19.492188-53.902344 11.707032-7.726562 22.046875-17.617187 30.386719-29.332031 7.601563-10.722656-2.140625-25.226562-14.972656-22.074219-43.382813 10.730469-88.492188-8.886718-110.613281-47.609374-2.0625-3.597657-6.652344-4.851563-10.261719-2.796876-3.597657 2.0625-4.847657 6.652344-2.792969 10.261719 25.144531 43.988281 75.960938 66.390625 125.121094 55.246094-9.128906 12.273437-20.855469 22.125-34.09375 29.019531-4.878906-1.011718-9.957032-1.242187-15.058594-.660156-15.289062-42.589844-65.097656-60.800781-104.078125-39.261719-3.507813 1.921875-6.84375 4.136719-9.972656 6.601563-31.148438-46.304688-17.851563-107.804688 26.9375-138.089844-5.238281 19.339844-5.289063 38.980469-.75 57.382812.992187 4.035157 5.058593 6.492188 9.085937 5.511719 4.03125-.992187 6.496094-5.0625 5.503906-9.101562-7.402343-30.191407 1.761719-50.230469 1.761719-55.714844 0-11.1875-12.480469-18.027344-21.945312-11.90625-35.445313 22.898437-53.796875 62.050781-52.570313 99.289063-13.359375-3.800782-27.792968-2.8125-40.726562 3.386718-9.035156-32.910156-39.210938-56.550781-74.273438-56.550781-32.898437 0-61.808594 20.746094-72.601562 51.238281-34.996094-4.226562-62.257813 27.796875-55.929688 60.066406h-28.847656c-15.582031 0-28.25 12.675782-28.25 28.25 0 15.582032 12.667969 28.25 28.25 28.25h86.589844c4.148437 0 7.515625-3.359374 7.515625-7.515624 0-4.148438-3.367188-7.515626-7.515625-7.515626h-86.589844c-7.296875 0-13.21875-5.925781-13.21875-13.21875 0-7.285156 5.921875-13.21875 13.21875-13.21875h39c5.40625 0 9.035156-5.546874 6.90625-10.492187-11.507812-26.617187 12.664062-56.417969 42.175781-48.691406 3.996094 1.078125 8.183594-1.339844 9.210938-5.410157 6.972656-27.5 31.675781-46.707031 60.085937-46.707031 31.285156 0 57.730469 23.378907 61.527344 54.371094.691406 5.699219 7.300781 8.570313 11.945312 5.121094 12.925782-9.636719 29.054688-10.945313 43.132813-4.929688 3.503906 20.433594 12.539063 39.113281 24.089844 53.191407-5.6875 17.476562-23.792969 29.984374-36.148438 29.984374-15.773437 0-127.289062 0-145.273437 0-4.148438 0-7.515625 3.367188-7.515625 7.515626 0 4.15625 3.367187 7.515624 7.515625 7.515624h89.800781c-1.605469 3.066407-2.917969 6.300782-3.910156 9.679688-28.167969-2.5-55.289063 15.210938-63.902344 43.078125-30.066406-12.875-65.546875 8.804687-65.546875 43.382813 0 28.75 25.511719 47.097656 43.070312 47.097656h59.8125c4.148438 0 7.515626-3.367188 7.515626-7.515625 0-4.148438-3.367188-7.515625-7.515626-7.515625h-59.8125c-8.378906 0-28.039062-10.914063-28.039062-32.066406 0-27.105469 30.675781-41.015626 51.195312-25.746094 4.597657 3.4375 11.253907.617187 11.945313-5.109375 3.765625-30.761719 35.992187-48.875 64.015625-37.246094 13.238281 5.480469 23.546875 16.933594 27.234375 31.484375 1.015625 4.039062 5.128906 6.496094 9.210937 5.421875 21.328126-5.609375 39.289063 15.925781 30.8125 35.5625-2.128906 4.949219 1.5 10.492187 6.90625 10.492187h30.3125c4.75 0 8.609376 3.859376 8.609376 8.597657 0 4.75-3.859376 8.609375-8.609376 8.609375h-113.71875c-4.15625 0-7.515624 3.367187-7.515624 7.515625 0 4.148437 3.359374 7.515625 7.515624 7.515625h113.71875c13.039063 0 23.640626-10.601563 23.640626-23.640625 0-13.027344-10.601563-23.628907-23.640626-23.628907h-20.441406c.667969-4.640624.515625-9.617187-.570312-14.410156h158.070312c26.734375 0 36.40625-35.46875 13.367188-49.0625zm-13.367188 34.03125h-164.804687c-8.222657-11.515625-21.921875-18.714844-37.027344-17.375-6.554687-17.328125-20.496094-30.542968-37.628906-36.386718 1.570312-4.699219 3.996093-9.007813 7.171875-12.765626h37.398437c22.496094 0 49.433594-22.265624 52.792969-51.027343 33.128906-24.867188 81.144531-7.9375 91.179688 32.136719 1.023437 4.050781 5.15625 6.488281 9.210937 5.421874 28.144531-7.457031 50.890625 21.738282 38.628906 46.898438-2.152343 4.40625.433594 9.691406 5.292969 10.671875 5.28125 1.042969 9.109375 5.710937 9.109375 11.101563 0 6.242187-5.082031 11.324218-11.324219 11.324218zm0 0"/></svg>